<?xml version="1.0" standalone="no"?><!DOCTYPE svg PUBLIC "-//W3C//DTD SVG 1.1//EN" "http://www.w3.org/Graphics/SVG/1.1/DTD/svg11.dtd"><svg t="1566729460155" class="icon" viewBox="0 0 1024 1024" version="1.1" xmlns="http://www.w3.org/2000/svg" p-id="3453" xmlns:xlink="http://www.w3.org/1999/xlink" width="200" height="200"><defs><style type="text/css"></style></defs><path d="M42.666667 448h938.666666v426.666667H42.666667z" fill="#8CBCD6" p-id="3454"></path><path d="M85.333333 490.666667h85.333334v85.333333H85.333333zM213.333333 490.666667h85.333334v85.333333h-85.333334zM341.333333 490.666667h85.333334v85.333333h-85.333334zM469.333333 490.666667h85.333334v85.333333h-85.333334zM597.333333 490.666667h85.333334v85.333333h-85.333334zM725.333333 490.666667h85.333334v85.333333h-85.333334zM853.333333 490.666667h85.333334v85.333333h-85.333334zM85.333333 746.666667h85.333334v85.333333H85.333333zM213.333333 746.666667h85.333334v85.333333h-85.333334zM341.333333 746.666667h341.333334v85.333333H341.333333zM725.333333 746.666667h85.333334v85.333333h-85.333334zM853.333333 746.666667h85.333334v85.333333h-85.333334zM85.333333 618.666667h149.333334v85.333333H85.333333zM277.333333 618.666667h85.333334v85.333333h-85.333334zM405.333333 618.666667h85.333334v85.333333h-85.333334zM533.333333 618.666667h85.333334v85.333333h-85.333334zM661.333333 618.666667h85.333334v85.333333h-85.333334zM789.333333 618.666667h149.333334v85.333333h-149.333334z" fill="#E1F5FE" p-id="3455"></path></svg>